<?xml version="1.0" encoding="UTF-8" standalone="no"?>
<!DOCTYPE svg PUBLIC "-//W3C//DTD SVG 1.1//EN"
 "http://www.w3.org/Graphics/SVG/1.1/DTD/svg11.dtd">
<!-- Generated by graphviz version 2.30.1 (20130221.2233)
 -->
<!-- Title: %3 Pages: 1 -->
<svg width="723pt" height="332pt"
 viewBox="0.00 0.00 723.00 332.00" xmlns="http://www.w3.org/2000/svg" xmlns:xlink="http://www.w3.org/1999/xlink">
<g id="graph0" class="graph" transform="scale(1 1) rotate(0) translate(4 328)">
<title>%3</title>
<polygon fill="white" stroke="white" points="-4,5 -4,-328 720,-328 720,5 -4,5"/>
<!-- Half()_(0, 0) -->
<g id="node1" class="node"><title>Half()_(0, 0)</title>
<ellipse fill="none" stroke="black" cx="302" cy="-162" rx="61.1419" ry="18"/>
<text text-anchor="middle" x="302" y="-158.3" font-family="Times,serif" font-size="14.00">Rational(1, 2)</text>
</g>
<!-- Symbol(y)_(2, 0) -->
<g id="node2" class="node"><title>Symbol(y)_(2, 0)</title>
<ellipse fill="none" stroke="black" cx="52" cy="-162" rx="52.4675" ry="18"/>
<text text-anchor="middle" x="52" y="-158.3" font-family="Times,serif" font-size="14.00">Symbol(&#39;y&#39;)</text>
</g>
<!-- Symbol(x)_(1, 1, 0) -->
<g id="node3" class="node"><title>Symbol(x)_(1, 1, 0)</title>
<ellipse fill="none" stroke="black" cx="552" cy="-90" rx="52.4675" ry="18"/>
<text text-anchor="middle" x="552" y="-86.3" font-family="Times,serif" font-size="14.00">Symbol(&#39;x&#39;)</text>
</g>
<!-- Integer(2)_(1, 1, 1) -->
<g id="node4" class="node"><title>Integer(2)_(1, 1, 1)</title>
<ellipse fill="none" stroke="black" cx="669" cy="-90" rx="46.1964" ry="18"/>
<text text-anchor="middle" x="669" y="-86.3" font-family="Times,serif" font-size="14.00">Integer(2)</text>
</g>
<!-- NegativeOne()_(2, 1) -->
<g id="node5" class="node"><title>NegativeOne()_(2, 1)</title>
<ellipse fill="none" stroke="black" cx="173" cy="-162" rx="50.0684" ry="18"/>
<text text-anchor="middle" x="173" y="-158.3" font-family="Times,serif" font-size="14.00">Integer(&#45;1)</text>
</g>
<!-- NegativeOne()_(1, 0) -->
<g id="node6" class="node"><title>NegativeOne()_(1, 0)</title>
<ellipse fill="none" stroke="black" cx="503" cy="-162" rx="50.0684" ry="18"/>
<text text-anchor="middle" x="503" y="-158.3" font-family="Times,serif" font-size="14.00">Integer(&#45;1)</text>
</g>
<!-- Symbol(y)_(0, 1, 0, 1) -->
<g id="node7" class="node"><title>Symbol(y)_(0, 1, 0, 1)</title>
<ellipse fill="none" stroke="black" cx="470" cy="-18" rx="52.4675" ry="18"/>
<text text-anchor="middle" x="470" y="-14.3" font-family="Times,serif" font-size="14.00">Symbol(&#39;y&#39;)</text>
</g>
<!-- Symbol(x)_(0, 1, 0, 0) -->
<g id="node8" class="node"><title>Symbol(x)_(0, 1, 0, 0)</title>
<ellipse fill="none" stroke="black" cx="347" cy="-18" rx="52.4675" ry="18"/>
<text text-anchor="middle" x="347" y="-14.3" font-family="Times,serif" font-size="14.00">Symbol(&#39;x&#39;)</text>
</g>
<!-- Pow(Symbol(x), Integer(2))_(1, 1) -->
<g id="node9" class="node"><title>Pow(Symbol(x), Integer(2))_(1, 1)</title>
<ellipse fill="none" stroke="black" cx="598" cy="-162" rx="27" ry="18"/>
<text text-anchor="middle" x="598" y="-158.3" font-family="Times,serif" font-size="14.00">Pow</text>
</g>
<!-- Pow(Symbol(x), Integer(2))_(1, 1)&#45;&gt;Symbol(x)_(1, 1, 0) -->
<g id="edge2" class="edge"><title>Pow(Symbol(x), Integer(2))_(1, 1)&#45;&gt;Symbol(x)_(1, 1, 0)</title>
<path fill="none" stroke="black" d="M587.562,-145.116C581.96,-136.592 574.925,-125.886 568.594,-116.251"/>
<polygon fill="black" stroke="black" points="571.455,-114.232 563.038,-107.797 565.605,-118.077 571.455,-114.232"/>
</g>
<!-- Pow(Symbol(x), Integer(2))_(1, 1)&#45;&gt;Integer(2)_(1, 1, 1) -->
<g id="edge3" class="edge"><title>Pow(Symbol(x), Integer(2))_(1, 1)&#45;&gt;Integer(2)_(1, 1, 1)</title>
<path fill="none" stroke="black" d="M612.711,-146.496C622.216,-137.125 634.79,-124.728 645.643,-114.028"/>
<polygon fill="black" stroke="black" points="648.159,-116.463 652.822,-106.95 643.244,-111.478 648.159,-116.463"/>
</g>
<!-- Pow(Symbol(y), NegativeOne())_(2,) -->
<g id="node10" class="node"><title>Pow(Symbol(y), NegativeOne())_(2,)</title>
<ellipse fill="none" stroke="black" cx="173" cy="-234" rx="27" ry="18"/>
<text text-anchor="middle" x="173" y="-230.3" font-family="Times,serif" font-size="14.00">Pow</text>
</g>
<!-- Pow(Symbol(y), NegativeOne())_(2,)&#45;&gt;Symbol(y)_(2, 0) -->
<g id="edge1" class="edge"><title>Pow(Symbol(y), NegativeOne())_(2,)&#45;&gt;Symbol(y)_(2, 0)</title>
<path fill="none" stroke="black" d="M153.29,-221.597C135.243,-211.157 108.131,-195.472 86.497,-182.957"/>
<polygon fill="black" stroke="black" points="88.0118,-179.79 77.6032,-177.812 84.5065,-185.849 88.0118,-179.79"/>
</g>
<!-- Pow(Symbol(y), NegativeOne())_(2,)&#45;&gt;NegativeOne()_(2, 1) -->
<g id="edge4" class="edge"><title>Pow(Symbol(y), NegativeOne())_(2,)&#45;&gt;NegativeOne()_(2, 1)</title>
<path fill="none" stroke="black" d="M173,-215.697C173,-207.983 173,-198.712 173,-190.112"/>
<polygon fill="black" stroke="black" points="176.5,-190.104 173,-180.104 169.5,-190.104 176.5,-190.104"/>
</g>
<!-- Mul(Symbol(x), Symbol(y))_(0, 1, 0) -->
<g id="node11" class="node"><title>Mul(Symbol(x), Symbol(y))_(0, 1, 0)</title>
<ellipse fill="none" stroke="black" cx="408" cy="-90" rx="27" ry="18"/>
<text text-anchor="middle" x="408" y="-86.3" font-family="Times,serif" font-size="14.00">Mul</text>
</g>
<!-- Mul(Symbol(x), Symbol(y))_(0, 1, 0)&#45;&gt;Symbol(x)_(0, 1, 0, 0) -->
<g id="edge5" class="edge"><title>Mul(Symbol(x), Symbol(y))_(0, 1, 0)&#45;&gt;Symbol(x)_(0, 1, 0, 0)</title>
<path fill="none" stroke="black" d="M395.063,-74.1548C387.337,-65.288 377.329,-53.8033 368.447,-43.6111"/>
<polygon fill="black" stroke="black" points="370.839,-41.0287 361.63,-35.789 365.562,-45.6276 370.839,-41.0287"/>
</g>
<!-- Mul(Symbol(x), Symbol(y))_(0, 1, 0)&#45;&gt;Symbol(y)_(0, 1, 0, 1) -->
<g id="edge6" class="edge"><title>Mul(Symbol(x), Symbol(y))_(0, 1, 0)&#45;&gt;Symbol(y)_(0, 1, 0, 1)</title>
<path fill="none" stroke="black" d="M421.149,-74.1548C429.08,-65.2002 439.376,-53.5756 448.469,-43.3088"/>
<polygon fill="black" stroke="black" points="451.119,-45.5955 455.13,-35.789 445.879,-40.9543 451.119,-45.5955"/>
</g>
<!-- sin(Mul(Symbol(x), Symbol(y)))_(0, 1) -->
<g id="node12" class="node"><title>sin(Mul(Symbol(x), Symbol(y)))_(0, 1)</title>
<ellipse fill="none" stroke="black" cx="408" cy="-162" rx="27" ry="18"/>
<text text-anchor="middle" x="408" y="-158.3" font-family="Times,serif" font-size="14.00">sin</text>
</g>
<!-- sin(Mul(Symbol(x), Symbol(y)))_(0, 1)&#45;&gt;Mul(Symbol(x), Symbol(y))_(0, 1, 0) -->
<g id="edge9" class="edge"><title>sin(Mul(Symbol(x), Symbol(y)))_(0, 1)&#45;&gt;Mul(Symbol(x), Symbol(y))_(0, 1, 0)</title>
<path fill="none" stroke="black" d="M408,-143.697C408,-135.983 408,-126.712 408,-118.112"/>
<polygon fill="black" stroke="black" points="411.5,-118.104 408,-108.104 404.5,-118.104 411.5,-118.104"/>
</g>
<!-- Mul(Half(), sin(Mul(Symbol(x), Symbol(y))))_(0,) -->
<g id="node13" class="node"><title>Mul(Half(), sin(Mul(Symbol(x), Symbol(y))))_(0,)</title>
<ellipse fill="none" stroke="black" cx="355" cy="-234" rx="27" ry="18"/>
<text text-anchor="middle" x="355" y="-230.3" font-family="Times,serif" font-size="14.00">Mul</text>
</g>
<!-- Mul(Half(), sin(Mul(Symbol(x), Symbol(y))))_(0,)&#45;&gt;Half()_(0, 0) -->
<g id="edge7" class="edge"><title>Mul(Half(), sin(Mul(Symbol(x), Symbol(y))))_(0,)&#45;&gt;Half()_(0, 0)</title>
<path fill="none" stroke="black" d="M343.238,-217.465C336.728,-208.867 328.478,-197.97 321.07,-188.187"/>
<polygon fill="black" stroke="black" points="323.669,-185.822 314.843,-179.962 318.089,-190.047 323.669,-185.822"/>
</g>
<!-- Mul(Half(), sin(Mul(Symbol(x), Symbol(y))))_(0,)&#45;&gt;sin(Mul(Symbol(x), Symbol(y)))_(0, 1) -->
<g id="edge11" class="edge"><title>Mul(Half(), sin(Mul(Symbol(x), Symbol(y))))_(0,)&#45;&gt;sin(Mul(Symbol(x), Symbol(y)))_(0, 1)</title>
<path fill="none" stroke="black" d="M366.762,-217.465C373.624,-208.402 382.419,-196.786 390.122,-186.612"/>
<polygon fill="black" stroke="black" points="393.024,-188.577 396.27,-178.492 387.444,-184.352 393.024,-188.577"/>
</g>
<!-- Mul(NegativeOne(), Pow(Symbol(x), Integer(2)))_(1,) -->
<g id="node14" class="node"><title>Mul(NegativeOne(), Pow(Symbol(x), Integer(2)))_(1,)</title>
<ellipse fill="none" stroke="black" cx="503" cy="-234" rx="27" ry="18"/>
<text text-anchor="middle" x="503" y="-230.3" font-family="Times,serif" font-size="14.00">Mul</text>
</g>
<!-- Mul(NegativeOne(), Pow(Symbol(x), Integer(2)))_(1,)&#45;&gt;NegativeOne()_(1, 0) -->
<g id="edge8" class="edge"><title>Mul(NegativeOne(), Pow(Symbol(x), Integer(2)))_(1,)&#45;&gt;NegativeOne()_(1, 0)</title>
<path fill="none" stroke="black" d="M503,-215.697C503,-207.983 503,-198.712 503,-190.112"/>
<polygon fill="black" stroke="black" points="506.5,-190.104 503,-180.104 499.5,-190.104 506.5,-190.104"/>
</g>
<!-- Mul(NegativeOne(), Pow(Symbol(x), Integer(2)))_(1,)&#45;&gt;Pow(Symbol(x), Integer(2))_(1, 1) -->
<g id="edge10" class="edge"><title>Mul(NegativeOne(), Pow(Symbol(x), Integer(2)))_(1,)&#45;&gt;Pow(Symbol(x), Integer(2))_(1, 1)</title>
<path fill="none" stroke="black" d="M520.424,-220.161C534.93,-209.473 555.792,-194.101 572.229,-181.989"/>
<polygon fill="black" stroke="black" points="574.39,-184.744 580.364,-175.995 570.237,-179.109 574.39,-184.744"/>
</g>
<!-- Add(Mul(Half(), sin(Mul(Symbol(x), Symbol(y)))), Mul(NegativeOne(), Pow(Symbol(x), Integer(2))), Pow(Symbol(y), NegativeOne()))_() -->
<g id="node15" class="node"><title>Add(Mul(Half(), sin(Mul(Symbol(x), Symbol(y)))), Mul(NegativeOne(), Pow(Symbol(x), Integer(2))), Pow(Symbol(y), NegativeOne()))_()</title>
<ellipse fill="none" stroke="black" cx="355" cy="-306" rx="27" ry="18"/>
<text text-anchor="middle" x="355" y="-302.3" font-family="Times,serif" font-size="14.00">Add</text>
</g>
<!-- Add(Mul(Half(), sin(Mul(Symbol(x), Symbol(y)))), Mul(NegativeOne(), Pow(Symbol(x), Integer(2))), Pow(Symbol(y), NegativeOne()))_()&#45;&gt;Pow(Symbol(y), NegativeOne())_(2,) -->
<g id="edge12" class="edge"><title>Add(Mul(Half(), sin(Mul(Symbol(x), Symbol(y)))), Mul(NegativeOne(), Pow(Symbol(x), Integer(2))), Pow(Symbol(y), NegativeOne()))_()&#45;&gt;Pow(Symbol(y), NegativeOne())_(2,)</title>
<path fill="none" stroke="black" d="M331.95,-296.134C299.95,-283.827 241.905,-261.502 205.514,-247.505"/>
<polygon fill="black" stroke="black" points="206.453,-244.117 195.863,-243.794 203.94,-250.65 206.453,-244.117"/>
</g>
<!-- Add(Mul(Half(), sin(Mul(Symbol(x), Symbol(y)))), Mul(NegativeOne(), Pow(Symbol(x), Integer(2))), Pow(Symbol(y), NegativeOne()))_()&#45;&gt;Mul(Half(), sin(Mul(Symbol(x), Symbol(y))))_(0,) -->
<g id="edge13" class="edge"><title>Add(Mul(Half(), sin(Mul(Symbol(x), Symbol(y)))), Mul(NegativeOne(), Pow(Symbol(x), Integer(2))), Pow(Symbol(y), NegativeOne()))_()&#45;&gt;Mul(Half(), sin(Mul(Symbol(x), Symbol(y))))_(0,)</title>
<path fill="none" stroke="black" d="M355,-287.697C355,-279.983 355,-270.712 355,-262.112"/>
<polygon fill="black" stroke="black" points="358.5,-262.104 355,-252.104 351.5,-262.104 358.5,-262.104"/>
</g>
<!-- Add(Mul(Half(), sin(Mul(Symbol(x), Symbol(y)))), Mul(NegativeOne(), Pow(Symbol(x), Integer(2))), Pow(Symbol(y), NegativeOne()))_()&#45;&gt;Mul(NegativeOne(), Pow(Symbol(x), Integer(2)))_(1,) -->
<g id="edge14" class="edge"><title>Add(Mul(Half(), sin(Mul(Symbol(x), Symbol(y)))), Mul(NegativeOne(), Pow(Symbol(x), Integer(2))), Pow(Symbol(y), NegativeOne()))_()&#45;&gt;Mul(NegativeOne(), Pow(Symbol(x), Integer(2)))_(1,)</title>
<path fill="none" stroke="black" d="M376.52,-294.821C401.73,-282.898 443.682,-263.056 472.302,-249.519"/>
<polygon fill="black" stroke="black" points="473.91,-252.631 481.454,-245.191 470.917,-246.303 473.91,-252.631"/>
</g>
</g>
</svg>
