<?xml version="1.0" encoding="UTF-8" standalone="no"?>
<!DOCTYPE svg PUBLIC "-//W3C//DTD SVG 1.1//EN"
 "http://www.w3.org/Graphics/SVG/1.1/DTD/svg11.dtd">
<!-- Generated by graphviz version 2.30.1 (20130221.2233)
 -->
<!-- Title: %3 Pages: 1 -->
<svg width="469pt" height="188pt"
 viewBox="0.00 0.00 469.00 188.00" xmlns="http://www.w3.org/2000/svg" xmlns:xlink="http://www.w3.org/1999/xlink">
<g id="graph0" class="graph" transform="scale(1 1) rotate(0) translate(4 184)">
<title>%3</title>
<polygon fill="white" stroke="white" points="-4,5 -4,-184 466,-184 466,5 -4,5"/>
<!-- Symbol(x)_(0, 0) -->
<g id="node1" class="node"><title>Symbol(x)_(0, 0)</title>
<ellipse fill="none" stroke="black" cx="52" cy="-18" rx="52.4675" ry="18"/>
<text text-anchor="middle" x="52" y="-14.3" font-family="Times,serif" font-size="14.00">Symbol(&#39;x&#39;)</text>
</g>
<!-- Integer(2)_(1, 1) -->
<g id="node2" class="node"><title>Integer(2)_(1, 1)</title>
<ellipse fill="none" stroke="black" cx="415" cy="-18" rx="46.1964" ry="18"/>
<text text-anchor="middle" x="415" y="-14.3" font-family="Times,serif" font-size="14.00">Integer(2)</text>
</g>
<!-- Symbol(y)_(0, 1) -->
<g id="node3" class="node"><title>Symbol(y)_(0, 1)</title>
<ellipse fill="none" stroke="black" cx="175" cy="-18" rx="52.4675" ry="18"/>
<text text-anchor="middle" x="175" y="-14.3" font-family="Times,serif" font-size="14.00">Symbol(&#39;y&#39;)</text>
</g>
<!-- Symbol(x)_(1, 0) -->
<g id="node4" class="node"><title>Symbol(x)_(1, 0)</title>
<ellipse fill="none" stroke="black" cx="298" cy="-18" rx="52.4675" ry="18"/>
<text text-anchor="middle" x="298" y="-14.3" font-family="Times,serif" font-size="14.00">Symbol(&#39;x&#39;)</text>
</g>
<!-- Mul(Symbol(x), Symbol(y))_(0,) -->
<g id="node5" class="node"><title>Mul(Symbol(x), Symbol(y))_(0,)</title>
<ellipse fill="none" stroke="black" cx="175" cy="-90" rx="27" ry="18"/>
<text text-anchor="middle" x="175" y="-86.3" font-family="Times,serif" font-size="14.00">Mul</text>
</g>
<!-- Mul(Symbol(x), Symbol(y))_(0,)&#45;&gt;Symbol(x)_(0, 0) -->
<g id="edge1" class="edge"><title>Mul(Symbol(x), Symbol(y))_(0,)&#45;&gt;Symbol(x)_(0, 0)</title>
<path fill="none" stroke="black" d="M154.964,-77.5975C136.537,-67.1102 108.812,-51.3321 86.773,-38.7895"/>
<polygon fill="black" stroke="black" points="88.4487,-35.7161 78.0264,-33.8118 84.9863,-41.7999 88.4487,-35.7161"/>
</g>
<!-- Mul(Symbol(x), Symbol(y))_(0,)&#45;&gt;Symbol(y)_(0, 1) -->
<g id="edge2" class="edge"><title>Mul(Symbol(x), Symbol(y))_(0,)&#45;&gt;Symbol(y)_(0, 1)</title>
<path fill="none" stroke="black" d="M175,-71.6966C175,-63.9827 175,-54.7125 175,-46.1124"/>
<polygon fill="black" stroke="black" points="178.5,-46.1043 175,-36.1043 171.5,-46.1044 178.5,-46.1043"/>
</g>
<!-- Pow(Symbol(x), Integer(2))_(1,) -->
<g id="node6" class="node"><title>Pow(Symbol(x), Integer(2))_(1,)</title>
<ellipse fill="none" stroke="black" cx="298" cy="-90" rx="27" ry="18"/>
<text text-anchor="middle" x="298" y="-86.3" font-family="Times,serif" font-size="14.00">Pow</text>
</g>
<!-- Pow(Symbol(x), Integer(2))_(1,)&#45;&gt;Symbol(x)_(1, 0) -->
<g id="edge3" class="edge"><title>Pow(Symbol(x), Integer(2))_(1,)&#45;&gt;Symbol(x)_(1, 0)</title>
<path fill="none" stroke="black" d="M298,-71.6966C298,-63.9827 298,-54.7125 298,-46.1124"/>
<polygon fill="black" stroke="black" points="301.5,-46.1043 298,-36.1043 294.5,-46.1044 301.5,-46.1043"/>
</g>
<!-- Pow(Symbol(x), Integer(2))_(1,)&#45;&gt;Integer(2)_(1, 1) -->
<g id="edge4" class="edge"><title>Pow(Symbol(x), Integer(2))_(1,)&#45;&gt;Integer(2)_(1, 1)</title>
<path fill="none" stroke="black" d="M317.583,-77.2836C335.15,-66.7735 361.285,-51.137 382.064,-38.7053"/>
<polygon fill="black" stroke="black" points="384.107,-41.5615 390.892,-33.4238 380.513,-35.5545 384.107,-41.5615"/>
</g>
<!-- Add(Mul(Symbol(x), Symbol(y)), Pow(Symbol(x), Integer(2)))_() -->
<g id="node7" class="node"><title>Add(Mul(Symbol(x), Symbol(y)), Pow(Symbol(x), Integer(2)))_()</title>
<ellipse fill="none" stroke="black" cx="236" cy="-162" rx="27" ry="18"/>
<text text-anchor="middle" x="236" y="-158.3" font-family="Times,serif" font-size="14.00">Add</text>
</g>
<!-- Add(Mul(Symbol(x), Symbol(y)), Pow(Symbol(x), Integer(2)))_()&#45;&gt;Mul(Symbol(x), Symbol(y))_(0,) -->
<g id="edge5" class="edge"><title>Add(Mul(Symbol(x), Symbol(y)), Pow(Symbol(x), Integer(2)))_()&#45;&gt;Mul(Symbol(x), Symbol(y))_(0,)</title>
<path fill="none" stroke="black" d="M223.063,-146.155C214.814,-136.689 203.965,-124.238 194.662,-113.563"/>
<polygon fill="black" stroke="black" points="197.126,-111.063 187.918,-105.824 191.849,-115.662 197.126,-111.063"/>
</g>
<!-- Add(Mul(Symbol(x), Symbol(y)), Pow(Symbol(x), Integer(2)))_()&#45;&gt;Pow(Symbol(x), Integer(2))_(1,) -->
<g id="edge6" class="edge"><title>Add(Mul(Symbol(x), Symbol(y)), Pow(Symbol(x), Integer(2)))_()&#45;&gt;Pow(Symbol(x), Integer(2))_(1,)</title>
<path fill="none" stroke="black" d="M249.149,-146.155C257.533,-136.689 268.56,-124.238 278.016,-113.563"/>
<polygon fill="black" stroke="black" points="280.86,-115.63 284.87,-105.824 275.62,-110.989 280.86,-115.63"/>
</g>
</g>
</svg>
