<?xml version="1.0" encoding="UTF-8" standalone="no"?>
<!DOCTYPE svg PUBLIC "-//W3C//DTD SVG 1.1//EN"
 "http://www.w3.org/Graphics/SVG/1.1/DTD/svg11.dtd">
<!-- Generated by graphviz version 2.30.1 (20130221.2233)
 -->
<!-- Title: %3 Pages: 1 -->
<svg width="269pt" height="188pt"
 viewBox="0.00 0.00 269.00 188.00" xmlns="http://www.w3.org/2000/svg" xmlns:xlink="http://www.w3.org/1999/xlink">
<g id="graph0" class="graph" transform="scale(1 1) rotate(0) translate(4 184)">
<title>%3</title>
<polygon fill="white" stroke="white" points="-4,5 -4,-184 266,-184 266,5 -4,5"/>
<!-- Symbol(x)_(1,) -->
<g id="node1" class="node"><title>Symbol(x)_(1,)</title>
<ellipse fill="none" stroke="black" cx="52" cy="-90" rx="52.4675" ry="18"/>
<text text-anchor="middle" x="52" y="-86.3" font-family="Times,serif" font-size="14.00">Symbol(&#39;x&#39;)</text>
</g>
<!-- Symbol(y)_(0, 1) -->
<g id="node2" class="node"><title>Symbol(y)_(0, 1)</title>
<ellipse fill="none" stroke="black" cx="90" cy="-18" rx="52.4675" ry="18"/>
<text text-anchor="middle" x="90" y="-14.3" font-family="Times,serif" font-size="14.00">Symbol(&#39;y&#39;)</text>
</g>
<!-- NegativeOne()_(0, 0) -->
<g id="node3" class="node"><title>NegativeOne()_(0, 0)</title>
<ellipse fill="none" stroke="black" cx="211" cy="-18" rx="50.0684" ry="18"/>
<text text-anchor="middle" x="211" y="-14.3" font-family="Times,serif" font-size="14.00">Integer(&#45;1)</text>
</g>
<!-- Mul(NegativeOne(), Symbol(y))_(0,) -->
<g id="node4" class="node"><title>Mul(NegativeOne(), Symbol(y))_(0,)</title>
<ellipse fill="none" stroke="black" cx="150" cy="-90" rx="27" ry="18"/>
<text text-anchor="middle" x="150" y="-86.3" font-family="Times,serif" font-size="14.00">Mul</text>
</g>
<!-- Mul(NegativeOne(), Symbol(y))_(0,)&#45;&gt;Symbol(y)_(0, 1) -->
<g id="edge1" class="edge"><title>Mul(NegativeOne(), Symbol(y))_(0,)&#45;&gt;Symbol(y)_(0, 1)</title>
<path fill="none" stroke="black" d="M136.981,-73.811C129.366,-64.9271 119.575,-53.5041 110.904,-43.3875"/>
<polygon fill="black" stroke="black" points="113.418,-40.9427 104.252,-35.6278 108.103,-45.4982 113.418,-40.9427"/>
</g>
<!-- Mul(NegativeOne(), Symbol(y))_(0,)&#45;&gt;NegativeOne()_(0, 0) -->
<g id="edge2" class="edge"><title>Mul(NegativeOne(), Symbol(y))_(0,)&#45;&gt;NegativeOne()_(0, 0)</title>
<path fill="none" stroke="black" d="M162.937,-74.1548C170.851,-65.0723 181.16,-53.243 190.199,-42.8696"/>
<polygon fill="black" stroke="black" points="192.873,-45.129 196.804,-35.2905 187.596,-40.5301 192.873,-45.129"/>
</g>
<!-- Add(Mul(NegativeOne(), Symbol(y)), Symbol(x))_() -->
<g id="node5" class="node"><title>Add(Mul(NegativeOne(), Symbol(y)), Symbol(x))_()</title>
<ellipse fill="none" stroke="black" cx="101" cy="-162" rx="27" ry="18"/>
<text text-anchor="middle" x="101" y="-158.3" font-family="Times,serif" font-size="14.00">Add</text>
</g>
<!-- Add(Mul(NegativeOne(), Symbol(y)), Symbol(x))_()&#45;&gt;Symbol(x)_(1,) -->
<g id="edge3" class="edge"><title>Add(Mul(NegativeOne(), Symbol(y)), Symbol(x))_()&#45;&gt;Symbol(x)_(1,)</title>
<path fill="none" stroke="black" d="M90.1253,-145.465C84.1066,-136.867 76.4793,-125.97 69.6309,-116.187"/>
<polygon fill="black" stroke="black" points="72.4752,-114.147 63.8733,-107.962 66.7406,-118.161 72.4752,-114.147"/>
</g>
<!-- Add(Mul(NegativeOne(), Symbol(y)), Symbol(x))_()&#45;&gt;Mul(NegativeOne(), Symbol(y))_(0,) -->
<g id="edge4" class="edge"><title>Add(Mul(NegativeOne(), Symbol(y)), Symbol(x))_()&#45;&gt;Mul(NegativeOne(), Symbol(y))_(0,)</title>
<path fill="none" stroke="black" d="M111.875,-145.465C118.155,-136.493 126.187,-125.019 133.258,-114.918"/>
<polygon fill="black" stroke="black" points="136.288,-116.691 139.156,-106.492 130.554,-112.677 136.288,-116.691"/>
</g>
</g>
</svg>
